<?xml version="1.0" encoding="iso-8859-1"?>
<!-- Generator: Adobe Illustrator 19.0.0, SVG Export Plug-In . SVG Version: 6.00 Build 0)  -->
<svg version="1.1" id="Layer_1" xmlns="http://www.w3.org/2000/svg" xmlns:xlink="http://www.w3.org/1999/xlink" x="0px" y="0px"
	 viewBox="0 0 512 512" style="enable-background:new 0 0 512 512;" xml:space="preserve">
<g>
	<path style="fill:#BAD8E8;" d="M153.208,509.846c-0.493-0.451-12.189-11.261-20.052-28.92c-7.387-16.587-12.739-42.533,3.7-71.938
		c20.364-36.422,10.579-55.918,10.474-56.104c-2.228-3.972-0.819-9.002,3.145-11.233c3.963-2.232,8.982-0.82,11.21,3.152
		c0.61,1.091,14.694,27.251-10.465,72.25c-10.518,18.813-11.537,38.04-3.029,57.15c6.479,14.55,16.017,23.365,16.111,23.453
		c3.36,3.069,3.6,8.287,0.536,11.654C161.764,512.681,156.557,512.91,153.208,509.846z"/>
	<path style="fill:#BAD8E8;" d="M333.881,505.473c-3.063-3.359-2.823-8.565,0.535-11.629c1.722-1.587,42.208-39.764,14.509-89.197
		c-27.382-48.863-12.139-77.119-11.476-78.297l14.353,8.062l0.06-0.111c-0.461,0.888-11.052,22.186,11.425,62.299
		c17.872,31.893,12.053,60.031,4.026,78.019c-8.557,19.178-21.265,30.899-21.803,31.388
		C342.153,509.072,336.946,508.833,333.881,505.473z"/>
</g>
<path style="fill:#17DDC0;" d="M456.453,224.787c-22.865,42.952-64.395,71.666-111.829,71.666
	c-72.113,0-130.574-66.364-130.574-148.227C214.051,66.363,272.512,0,344.624,0c91.388,0,154.514,104.115,122.089,200.899"/>
<path style="fill:#0DBAA1;" d="M460.375,215.652c-78.407,72.835-197.669,9.895-197.669-106.409
	c0-39.962,15.029-75.934,39.016-101.046c-51.038,20.149-87.672,75.229-87.672,140.029c0,75.83,50.165,138.352,114.874,147.156
	l-5.772,28.685c-1.414,7.006,1.621,10.156,7.302,10.156h31.647c4.503,0,7.468-3.011,6.252-9.429l-5.636-29.769
	C406.155,288.182,442.556,257.15,460.375,215.652z"/>
<path style="fill:#FFCA54;" d="M231.04,75.077C153.946,3.48,36.672,65.346,36.672,179.719c0,74.633,53.299,135.138,119.044,135.138
	c41.061,0,77.267-23.602,98.666-59.506C210.148,207.32,202.177,132.707,231.04,75.077z"/>
<path style="fill:#F99830;" d="M235.436,280.073c-78.38,12.961-148.7-47.556-148.7-125.982c0-46.299,24.639-86.842,61.519-109.237
	C85.986,49.227,36.672,107.931,36.672,179.719c0,69.126,45.724,126.122,104.71,134.159l-5.607,27.864
	c-0.301,2.696,0.208,7.454,7.55,7.454h27.622c4.564,0,7.492-2.844,6.4-8.605c0,0-4.149-21.916-5.117-27.03
	C196.367,309.756,218.188,297.739,235.436,280.073z"/>
<g>
</g>
<g>
</g>
<g>
</g>
<g>
</g>
<g>
</g>
<g>
</g>
<g>
</g>
<g>
</g>
<g>
</g>
<g>
</g>
<g>
</g>
<g>
</g>
<g>
</g>
<g>
</g>
<g>
</g>
</svg>
