<?xml version="1.0" encoding="iso-8859-1"?>
<!-- Generator: Adobe Illustrator 19.0.0, SVG Export Plug-In . SVG Version: 6.00 Build 0)  -->
<svg version="1.1" id="Capa_1" xmlns="http://www.w3.org/2000/svg" xmlns:xlink="http://www.w3.org/1999/xlink" x="0px" y="0px"
	 viewBox="0 0 512 512" style="enable-background:new 0 0 512 512;" xml:space="preserve">
<g>
	<path style="fill:#A06047;" d="M174.659,512c-4.145,0-7.505-3.36-7.505-7.505c0-20.791-8.571-30.739-18.497-42.259
		c-10.376-12.042-22.136-25.69-22.136-52.056c0-26.366,11.761-40.014,22.136-52.056c9.925-11.519,18.497-21.468,18.497-42.259
		c0-4.145,3.36-7.505,7.505-7.505s7.505,3.36,7.505,7.505c0,26.366-11.761,40.015-22.137,52.057
		c-9.925,11.518-18.496,21.467-18.496,42.258c0,20.791,8.571,30.738,18.496,42.258c10.377,12.042,22.137,25.691,22.137,52.057
		C182.164,508.64,178.804,512,174.659,512z"/>
	<path style="fill:#A06047;" d="M309.12,511.83c-2.86,0-5.593-1.644-6.846-4.42c-4.175-9.254-6.206-19.422-6.206-31.086
		c0-26.086,10.221-39.677,19.24-51.668c8.706-11.576,16.225-21.575,16.225-42.646c0-4.145,3.36-7.505,7.505-7.505
		s7.505,3.36,7.505,7.505c0,26.086-10.221,39.677-19.24,51.668c-8.706,11.576-16.225,21.575-16.225,42.646
		c0,9.623,1.549,17.539,4.878,24.913c1.705,3.778,0.024,8.223-3.755,9.928C311.2,511.616,310.151,511.83,309.12,511.83z"/>
</g>
<ellipse style="fill:#00DDC2;" cx="311.545" cy="115.974" rx="99.583" ry="115.974"/>
<path style="fill:#00BCA1;" d="M411.131,115.97c0,64.05-44.589,115.969-99.586,115.969c-7.093,0-14.008-0.86-20.676-2.5
	c45.085-11.083,78.918-57.675,78.918-113.47S335.954,13.584,290.869,2.501C297.538,0.861,304.453,0,311.546,0
	C366.544,0,411.131,51.921,411.131,115.97z"/>
<path style="fill:#CE1D4C;" d="M187.469,309.752l-6.52-12.996h-8.434h-8.432l-6.52,12.996c-1.479,2.948,0.664,6.421,3.963,6.421
	h21.982C186.805,316.173,188.948,312.7,187.469,309.752z"/>
<path style="fill:#F7D443;" d="M354.434,375.895l-6.52-12.997h-8.434h-8.432l-6.52,12.997c-1.479,2.948,0.664,6.421,3.963,6.421
	h21.982C353.769,382.315,355.913,378.843,354.434,375.895z"/>
<ellipse style="fill:#E84661;" cx="172.514" cy="180.782" rx="99.583" ry="115.974"/>
<path style="fill:#CE1D4C;" d="M272.098,180.784c0,64.05-44.588,115.969-99.586,115.969c-7.093,0-14.008-0.86-20.676-2.5
	c45.085-11.083,78.918-57.675,78.918-113.47s-33.834-102.387-78.918-113.47c6.668-1.64,13.583-2.5,20.676-2.5
	C227.51,64.813,272.098,116.734,272.098,180.784z"/>
<ellipse style="fill:#FFE269;" cx="339.486" cy="246.93" rx="99.583" ry="115.974"/>
<path style="fill:#F7D443;" d="M439.06,246.925c0,64.05-44.579,115.969-99.577,115.969c-7.572,0-14.949-0.985-22.041-2.846
	c44.402-11.686,77.552-57.896,77.552-113.123s-33.15-101.438-77.552-113.115c7.093-1.87,14.47-2.855,22.041-2.855
	C394.481,130.955,439.06,182.876,439.06,246.925z"/>
<g>
</g>
<g>
</g>
<g>
</g>
<g>
</g>
<g>
</g>
<g>
</g>
<g>
</g>
<g>
</g>
<g>
</g>
<g>
</g>
<g>
</g>
<g>
</g>
<g>
</g>
<g>
</g>
<g>
</g>
</svg>
