<svg height="512pt" viewBox="-6 0 512 512.00053" width="512pt" xmlns="http://www.w3.org/2000/svg"><path d="m9.59375 265.535156c-5.335938 0-9.640625-4.386718-9.5273438-9.722656 0-.019531 0-.039062 0-.058594 3.0664058-133.304687 110.3164058-240.863281 243.4960938-244.421875 139.929688-3.742187 256.496094 109.039063 257.191406 249.015625.234375 46.378906-12.15625 89.84375-33.914062 127.175782-5.398438 9.257812-15.324219 14.9375-26.042969 14.9375h-342.125c-32.695313 0-60.015625-24.910157-62.996094-57.472657-1.957031-21.355469-3.738281-44.144531-4.910156-59.8125-.828125-11.082031-10.058594-19.640625-21.171875-19.640625zm0 0" fill="#025f80"/><path d="m372.566406 422.019531h-48.902344v-254.289062h48.902344zm0 0" fill="#0680ae"/><path d="m3.699219 304.65625h35.421875v78.242188h-7.820313c-13.285156-23.949219-22.761719-50.300782-27.601562-78.242188zm152.789062 0v78.242188h58.683594v-78.242188zm0 0" fill="#cd9e00"/><path d="m382.359375 153.277344v24.460937c0 2.703125-2.1875 4.890625-4.890625 4.890625h-.816406v5.707032c0 6.304687-5.109375 11.417968-11.414063 11.417968h-34.242187c-6.304688 0-11.414063-5.113281-11.414063-11.417968v-34.242188c0-53.816406-44.046875-97.539062-97.980469-97.015625-53.414062.515625-96.066406 44.839844-96.066406 98.253906v249.707031h-57.070312v-250.945312c0-85.265625 69.613281-154.582031 154.992187-154.08984375 82.550781.47265575 149.199219 66.71484375 153.015625 148.38281275h.996094c2.699219 0 4.890625 2.191406 4.890625 4.890625zm0 0" fill="#f5dc90"/><path d="m205.390625 255.753906c10.800781 0 19.5625 8.757813 19.5625 19.5625v39.121094c0 10.800781-8.761719 19.558594-19.5625 19.558594h-39.121094c-10.804687 0-19.5625-8.757813-19.5625-19.558594v-39.121094c0-10.804687 8.757813-19.5625 19.5625-19.5625zm-156.488281 58.683594v-39.121094c0-10.804687-8.757813-19.5625-19.5625-19.5625h-29.2656252c-.0429688 1.949219-.0742188 3.90625-.0742188 5.867188 0 25.167968 3.730469 49.460937 10.636719 72.375h18.703125c10.804687 0 19.5625-8.757813 19.5625-19.558594zm176.046875 29.339844h-205.386719c-1.902344 0-3.734375.285156-5.476562.789062 5.949218 16.945313 13.660156 33.058594 22.929687 48.113282h187.933594c10.804687 0 19.5625-8.757813 19.5625-19.5625v-9.78125c0-10.800782-8.757813-19.558594-19.5625-19.558594zm-141.648438-14.503906c8.195313 0 14.839844-6.640626 14.839844-14.835938v-160.34375c0-79.960938 61.222656-145.886719 139.253906-153.375-4.882812-.46875-9.832031-.71875-14.835937-.71875-84.96875 0-154.09375 69.125-154.09375 154.09375v160.34375c0 8.195312 6.640625 14.835938 14.835937 14.835938zm294.167969-158.058594h-37.019531c-2.699219 0-4.886719-2.1875-4.886719-4.890625v-13.046875c0-2.699219 2.1875-4.890625 4.886719-4.890625 4.710937 0 8.285156-4.226563 7.53125-8.875-7.441407-46-46.65625-81.878907-94.613281-82.433594-5.433594-.0625-10.769532.328125-15.96875 1.128906 44.636718 6.882813 79.320312 44.304688 81.996093 90.179688h-.628906c-2.703125 0-4.890625 2.191406-4.890625 4.890625v24.460937c0 2.703125 2.1875 4.890625 4.890625 4.890625h.816406v5.707032c0 6.304687 5.109375 11.417968 11.414063 11.417968h18.261718v-9.5c0-4.210937 3.414063-7.625 7.625-7.625h20.585938c2.703125 0 4.890625-2.1875 4.890625-4.890625v-11.414062c0 2.703125-2.191406 4.890625-4.890625 4.890625zm0 0" fill="#f5c02c"/><path d="m166.265625 294.875v-19.5625c0-10.800781 8.761719-19.558594 19.5625-19.558594h19.5625c10.800781 0 19.5625 8.757813 19.5625 19.558594v19.5625c0 10.804688-8.761719 19.5625-19.5625 19.5625h-19.5625c-10.800781 0-19.5625-8.757812-19.5625-19.5625zm-117.363281-19.5625c0-10.800781-8.757813-19.558594-19.5625-19.558594h-19.558594c-3.550781 0-6.875.957032-9.7382812 2.613282-.015625 1.082031-.0429688 2.164062-.0429688 3.253906 0 17.949218 1.90625 35.453125 5.496094 52.335937 1.378906.308594 2.8125.480469 4.285156.480469h19.5625c10.800781 0 19.558594-8.757812 19.558594-19.5625zm176.046875 68.464844h-99.414063v-9.78125h-57.070312v9.78125h-4.890625c-8.101563 0-14.671875 6.566406-14.671875 14.671875 0 8.101562 6.570312 14.667969 14.671875 14.667969h166.265625c7.324218 0 13.378906-5.375 14.476562-12.390626-1.28125-9.566406-9.453125-16.949218-19.367187-16.949218zm0 0" fill="#f5dc90"/><path d="m467.328125 386.660156c-43.269531 74.917969-124.214844 125.339844-216.949219 125.339844s-173.679687-50.421875-216.949218-125.339844c6.957031-2.644531 13.519531-6.089844 19.558593-10.25 18.484375-12.730468 43.234375-12.730468 61.71875 0 14.898438 10.261719 32.949219 16.269532 52.40625 16.269532s37.511719-6.007813 52.410157-16.269532c18.480468-12.730468 43.230468-12.730468 61.71875 0 14.894531 10.261719 32.949218 16.269532 52.40625 16.269532 19.457031 0 37.507812-6.007813 52.40625-16.269532 18.484374-12.730468 43.234374-12.730468 61.71875 0 6.035156 4.160156 12.597656 7.605469 19.554687 10.25zm0 0" fill="#6caac9"/><path d="m438.746094 426.558594c-45.894532 52.367187-113.265625 85.441406-188.367188 85.441406-75.101562 0-142.472656-33.074219-188.363281-85.441406 17-7.410156 37.078125-5.742188 52.691406 5.011718 14.898438 10.257813 32.949219 16.265626 52.40625 16.265626s37.511719-6.007813 52.40625-16.265626c18.484375-12.730468 43.234375-12.730468 61.71875 0 14.898438 10.257813 32.949219 16.265626 52.40625 16.265626s37.511719-6.007813 52.410157-16.265626c15.609374-10.753906 35.6875-12.425781 52.691406-5.011718zm0 0" fill="#88b9d3"/></svg>